# xmcd
#
# Track frame offsets: 
#        150
#        19335
#        39346
#        53811
#        70477
#        88740
#        104906
#        116808
#        140696
#        155124
#        175019
#        192494
#        210413
#        223269
#        242970
#        259060
#        278144
#        298560
#        309989
#        324681
#
# Disc length: 4374 seconds
#
# Revision: 0
# Processed by: cddbd v1.5.2PL0 Copyright (c) Steve Scherf et al.
# Submitted via: ExactAudioCopy v0.95a4
#
DISCID=42111414
DTITLE=Hank Häberle Jr. - Meine Hits
DYEAR=2007
DGENRE=Country
TTITLE0=I schwätz schwäbisch
TTITLE1=Guck mol,wia der guckt
TTITLE2=Gollwahs ond Wiski ond fette Weiber
TTITLE3=I ben a bogglharter Fan vom VFB
TTITLE4=Sonscht ben i gsond
TTITLE5=A Mark fir d' Musik Box
TTITLE6=Dr Aparatratra
TTITLE7=Domm gloffa
TTITLE8=Irgendwie isch jeder ganz alloi
TTITLE9=Mir miasad schbara
TTITLE10=I fahr GTI (live)
TTITLE11=Jeden Morga stoht a Dommer uff
TTITLE12=Flichtlengswalzer
TTITLE13=Jedesmol dr gleiche Scheiss
TTITLE14=Oiner goht no nei
TTITLE15=Selbstständiger Arbeitsloser
TTITLE16=Bei ons im Schwabeländle (live)
TTITLE17=7 alte Weiber (live)
TTITLE18=Nou Mama Nou (live)
TTITLE19=Marcel Reich Häbytzkis Kriddick (live)
EXTD=Year: 2007\n\nincl. 2 bisher unveröffentlichte Livemitschnitte
EXTT0=
EXTT1=
EXTT2=
EXTT3=
EXTT4=
EXTT5=
EXTT6=
EXTT7=
EXTT8=
EXTT9=
EXTT10=
EXTT11=
EXTT12=
EXTT13=
EXTT14=
EXTT15=
EXTT16=
EXTT17=
EXTT18=
EXTT19=
PLAYORDER=
